<svg xmlns="http://www.w3.org/2000/svg" viewBox="0 0 1021 269"><defs><style>.cls-1{fill:none;}.cls-2{fill:#fff;}.cls-3{fill:#ccc;}.cls-4{fill:#04357c;}.cls-5{fill:#05a5e0;}</style></defs><g id="Capa_2" data-name="Capa 2"><g id="Capa_1-2" data-name="Capa 1"><g id="Capa_2-2" data-name="Capa 2"><g id="Capa_1-2-2" data-name="Capa 1-2"><path class="cls-1" d="M510,268.91q-252.71,0-505.4.09c-3.75,0-4.6-.84-4.6-4.59Q.18,134.25,0,4.09C0,.67.67,0,4.1,0Q510.5.15,1016.9,0c3.43,0,4.1.67,4.1,4.09q-.18,130.41,0,260.82c0,3.42-.67,4.09-4.09,4.09Q763.46,268.83,510,268.91ZM631.84,181.5c.45.35.89.44,1.3-.06,10.34-2.19,12.87-4.88,13.06-15.44.24-14,0-27.94.09-41.91.06-8.63-4.69-14-14-14.46-17.43-.78-34.93-.25-52.4-.29-2.75,0-3.93,1.3-3.76,4a20.56,20.56,0,0,1,0,4c-.65,4.78,1.71,6,6.08,6,8.81-.2,17.63,0,26.45-.06,9.65,0,9.54,0,9.4,9.58,0,3-.77,4.2-4.09,4.64-10.34,1.39-20.62,3.27-30.91,5.1-7.92,1.4-12.63,6.25-14,14.13a49.73,49.73,0,0,0-.25,8c-.07,11.11,4.46,16.16,14,16.84l1.26.06H591q18.56.66,37.09,0ZM525.63,123.25l2.69,1.17c0,2.16-.11,4.31-.1,6.46q.19,24.09.43,48.19c.51,2,2,2.55,3.8,2.56,6.82.05,13.65,0,20.47,0,3.09,0,3.89-2,3.9-4.63,0-18,.25-35.94,0-53.9-.11-8.26-5.19-13.45-13-13.56-16.64-.23-33.29-.27-49.93,0-8.78.15-13.38,5.16-13.45,14-.14,17.64,0,35.27-.1,52.91,0,3.9,1.7,5.35,5.42,5.27,5.33-.12,10.65,0,16-.05,6.25,0,7.19-1.12,6.79-7.8a138.73,138.73,0,0,0,0-22.88v-7a86.93,86.93,0,0,0,0-17.07c.28-2.84,2.07-3.78,4.68-3.76h12.19v.28Zm-140.5-13.72H381a183,183,0,0,0-25,0c-2.83,0-5.65-.06-8.47-.07-12.43,0-17.09,4.55-17.17,17s-.05,24.9-.09,37.35c0,13,5.49,18.28,18.75,17.81q18.56.63,37.1,0h6.48l2.94-.23v.21l0-.2c10.12-1.78,12.39-8.35,12.43-16,.05-12.6-.28-25.22.09-37.82.33-11.46-4.78-18.71-18.1-18A7.36,7.36,0,0,0,385.13,109.53ZM87,181.05a14.43,14.43,0,0,0,0-2.46c-2.89-12.43-3.8-24.9-1.59-37.58,3.74-21.41,14.27-38.07,33.48-48.76C138.34,81.4,158.2,83.92,178.07,91c7,2.49,9.76,1.7,13.57-4.65,2.13-3.56,4-7.29,6.4-10.68,3.86-5.54,8.05-10.84,12.05-16.29,2.8-3.81,2.35-6.7-1.42-9.53C186,32.77,160.39,26.93,132.6,31.36,104.18,35.9,80.82,48.85,66.49,74.83,52.06,101,49.57,128,62.91,155.38A58.6,58.6,0,0,0,87,181.05Zm135.53-49.57h0c0,14.65.1,29.29-.06,43.93,0,4.55,1.25,6.72,6.24,6.36a115.45,115.45,0,0,1,16,0c5,.33,6.34-2.05,6.27-6.55-.16-10.82,0-21.63-.13-32.45,0-2.87.47-4.09,3.75-4,9,.24,18,.19,27,0,2.91-.06,3.54,1,3.5,3.68-.14,11.14,0,22.29-.12,33.44,0,4.29,1.62,6.06,5.93,5.87,4.82-.21,9.65,0,14.48,0,8.05,0,8.49-.52,8.49-8.78V86.62c-.05-3.18-1.43-4.77-4.92-4.64a163.76,163.76,0,0,1-18,0c-4.86-.35-6,1.71-5.93,6,.16,10.81-.13,21.63.12,32.44.09,3.86-1.2,4.7-4.82,4.57-8-.28-16-.33-24,0-4.19.17-5.77-.65-5.59-5.33.43-10.8.07-21.63.18-32.44,0-3.79-1.32-5.4-5.27-5.23-5.82.25-11.67.31-17.48,0-4.39-.26-5.76,1.35-5.7,5.64.17,14.57.05,29.21.05,43.85Zm477,50.3h0c11.16,0,22.32.17,33.48,0,11.81-.23,17.79-6.37,18-18,.07-4.16.07-8.33,0-12.49-.3-10.54-4.08-16.1-14.3-18.95-11.35-3.17-22.94-5.44-34.4-8.18-16-3.84-15.56-2.46-15.48-19.63,0-6.57,2-8.56,8.66-8.58,14.33,0,28.65-.07,43,.08,4.62,0,6.2-2,6-6.39-.21-3.88.53-7.7-5.55-7.64-21.65.2-43.3,0-65,.14-7,0-12.29,4.31-14.35,11-2.36,7.67-1.72,15.57-.75,23.24.94,7.38,5.68,12.59,13,14.71,5.64,1.64,11.4,2.9,17.13,4.22,9.23,2.12,18.48,4.14,27.71,6.24,4.11.93,6.31,3.36,6.13,7.79-.13,3.32,0,6.65,0,10,0,7.11-1.23,8.41-8.51,8.45-15.83.07-31.65,0-47.47,0-5.49,0-6.73,1.27-6.81,6.75-.09,6.18.87,7.35,6.58,7.38,10.94-.09,21.94-.14,32.93-.14Zm103.7-72.48v.21c-8.82,0-17.66-.34-26.46.09-8.26.41-12.56,5.46-12.58,13.76,0,14.47.12,29,0,43.43-.11,9.93,5.22,14.44,14.35,14.8,16.12.62,32.3.36,48.44.09,8.72-.14,14.72-6.43,14.8-15q.18-21.23,0-42.44c-.13-9.5-5.51-14.77-15-15-7.95-.06-15.78.06-23.6.06ZM165.5,207.16c5.06.33,13.5-1.14,21.52-4.76a11.28,11.28,0,0,0,5.77-14.87,10.19,10.19,0,0,0-.66-1.27c-2.22-3.81-4.62-7.52-7-11.25-4.23-6.68-5.77-7.27-13.37-5.48-9.18,2.15-18.28,2.69-27.41-.62-15.89-5.77-22.76-25.19-24.89-41.38-1-7.86,1.35-15.17,5-22.11.79-1.48,2.45-3.48.57-5-1.67-1.3-3.43.39-5,1.32a54.3,54.3,0,0,0-24.53,59.55c3,12.26,8.22,23,18.55,30.92C128.27,203.06,144.42,206.87,165.5,207.16Zm691.1-71.7c0,13.82.06,27.63-.05,41.45,0,3.55,1.13,5.08,4.91,4.92,5.82-.25,11.65-.08,17.48,0,3.87,0,5.49-1.41,5.57-5.65.33-16,.65-31.94-.13-47.9-.19-3.94,1.37-5.48,5.1-5.41,3,.07,6,.08,8.94.06,2,0,3.44-.74,4-3,1.83-7.69-.11-10.27-7.93-10.35h-2c-8.33-.13-8.44-.37-8-8.82.21-3.79,1.82-5.38,5.63-5.16a87.49,87.49,0,0,0,11.45.12c6.52-.5,3.91-5.67,4.34-9.21S904.23,82,901,82c-10.15.06-20.31,0-30.47,0-8.67,0-13.92,5.29-14,14C856.53,109.16,856.58,122.31,856.6,135.46Zm59-.75h.14c0,10.81-.15,21.62,0,32.42.17,9.13,5,14.28,14.09,14.58,10.13.33,20.29,0,30.44.07,4.46,0,5.08-2.51,4.93-6.14s.64-7.72-4.88-7.91c-3.82-.13-7.65-.18-11.47-.08-3.55.1-5.13-1.33-5.1-5q.16-17.7,0-35.41c0-3,1-4.26,4-4.18,3.32.08,6.65-.06,10-.13,1.52,0,3-.17,3.71-1.87,2.84-6.41-.49-11.66-7.52-11.78h-1.5c-2.7,0-6.66,1.16-7.79-.15-1.46-1.71-.87-5.36-.82-8.16.06-3.78-1.41-5.41-5.34-5.25-5.81.24-11.65.28-17.46,0-4.24-.2-5.54,1.6-5.49,5.56.13,11.15,0,22.29,0,33.43ZM422.82,149.92h-.13c0,8.65.1,17.3,0,26-.07,4.28,1.73,6,6,5.88a94.45,94.45,0,0,1,14.47.12c6.46.77,8.31-.52,8.29-7,0-15.47.1-30.94-.08-46.41-.05-3.91,1.37-5.46,5.14-5.37s7.33-.16,11,0c6,.31,5.36-3.76,5.5-7.68s-.68-6.29-5.41-6.17c-9.82.25-19.64,0-29.46.12-10.2.14-14.93,4.77-15.2,15C422.64,132.94,422.82,141.43,422.82,149.92Zm238.85,70c0,2.16.17,4.34,0,6.49-.36,3.77,2.11,3.27,4.49,3.36s4.21-.13,3.93-3.38a93.68,93.68,0,0,1-.07-9.48c0-1.71-.65-4,2.26-4s2.47,2,2.48,3.85c0,3.32.12,6.66,0,10-.07,2,.33,3,2.64,3.12,4,.28,6.47-.42,5.82-5.27a59.33,59.33,0,0,1,0-8c0-1.62-.46-3.5,2.13-3.65s2.26,1.83,2.29,3.41a83.28,83.28,0,0,1,0,9.48c-.31,3.68,1.65,4,4.55,4s4.34-.66,4.15-3.88q-.32-5.73-.06-11.48c.17-4.37-1.92-5.79-6.06-5.87-5.67-.11-11.29.58-17,.3-12.57-.64-11.44-.92-11.55,11Zm181.2-4.84c0-3.66-.16-7.32,0-11,.15-2.78-.69-4.06-3.61-3.71-2.33.27-5.58-.69-5,3.42.63,4.64-1.83,5.06-5.53,4.94-8.18-.26-8.37,0-8.39,8.23,0,12.63,0,12.63,12.51,12.76,10,.11,10,.11,10-9.69,0-1.64,0-3.3,0-5Zm-66.49.75c0-4.4-.21-8.08.06-11.71.29-3.85-1.93-3.72-4.67-3.78-2.9-.06-4.22.6-3.74,3.84.31,2.11.9,4.63-3.11,4.54-11.55-.25-10.85-1-10.81,11.24v2c0,7.51.14,7.74,7.66,7.72,4.63,0,10.65,1.94,13.52-.74,3.13-2.94.63-9.13,1.09-13.12Zm84.16,7.34c0,3.16.1,6.33,0,9.48-.14,3.44,1.55,4.84,4.8,4.83h11.48c3,0,6.14.15,6.5-4.22.34-4.18-1.3-6.73-5.47-7.46-2.29-.39-4.61-.62-6.91-1-1.11-.17-1.88-.76-1.68-2s1.22-1,2-1c2.16-.07,4.34.1,6.49-.09,5.7-.51,4.06-4.9,4.36-8.34.31-3.6-1.64-4.75-4.78-4.75h-12c-3.33,0-4.84,1.66-4.78,4.95s0,6.43,0,9.59ZM497,223h0c0,3.49.17,7-.05,10.46-.19,3.07,1,4.19,4,4,2.59-.12,5.31.22,4.68-3.71-.53-3.4,1.07-4.38,4.17-4.06a41.84,41.84,0,0,0,4.48,0c3.71.09,5.54-1.67,5.5-5.4v-4.48c.37-13-1.62-11.14-11.18-11.16-11.54,0-11.54,0-11.56,11.28C497,221,497,222,497,223ZM259.86,200.4h0c-2.17,0-4.34.08-6.5,0-4-.18-7.47.69-8.31,5.09-1.11,5.82.58,8.33,6.14,10a65,65,0,0,0,9.65,2.27c3.13.39,3.74,2.13,3.64,4.74-.11,3-2,3.23-4.43,3.12-3.49-.16-7,0-10.49,0-1.52,0-3.2-.3-3.21,2s1.71,2.13,3.2,2.13c5.5,0,11-.11,16.49.07,3.28.11,5.63-1,6.36-4.2,1.33-5.78.08-8.6-4.37-9.88-3.08-.89-6.31-1.26-9.46-1.89-3.34-.68-4.27-2.8-4.26-6.1,0-3.86,2.52-3.2,4.76-3.24,2.5,0,5,.2,7.49,0,1.53-.15,4.13,1.2,4.3-1.8s-2.4-2.09-4-2.19C264.53,200.29,262.19,200.4,259.86,200.4ZM792,229.73h5.28c5.72-.09,6.44-.85,6.45-6.76v-9c0-2.31-.73-4.88-3-5-6-.31-12.79-2.28-18,.87-4.26,2.59-1.26,8.64-1.9,13.11a7.42,7.42,0,0,0,0,1.49c.29,3.7,2.1,5.76,6,5.54Zm-401.07,0c11.2,0,11.31,0,11.29-9.46,0-12,1.89-11.7-11.92-11.52h-1.5c-8.31.17-9.47-1.87-9.35,9.57s.08,11.35,11.55,11.37Zm231.5-11.45h-.14c.07,1.66.18,3.32.22,5,.15,6,.59,6.45,6.65,6.49,3.16,0,6.33-.1,9.49.06,4.16.22,6.08-1.78,6.12-5.76s-.18-8,0-12c.15-3.14-1.38-3.5-4-3.41s-4.73-.2-4.58,3.41,0,7.32,0,11c0,2-1.1,2.51-2.88,2.52s-2.73-.62-2.65-2.62c.11-3-.06-6,0-9s.46-5.45-4.13-5.4c-4.27.05-4.59,2-4.24,5.23a41.2,41.2,0,0,1,.18,4.44ZM288,208.73c-11.27,0-11.29,0-11.4,8.69-.18,14.09-.57,12.23,12.33,12.33,10,.09,10.06.06,10.07-10,0-11.75,1.35-11.1-11-11.06Zm434.85,9.87c0-2.32-.13-4.66,0-7,.21-3.1-1.75-3-3.86-3s-4.43-.33-4.22,3.13c.2,3.14,0,6.3.06,9.45.06,2.32.06,4.32-3.16,4.37s-2.69-2.14-2.7-4.08c0-3.15-.14-6.31,0-9.45.14-2.63-.88-3.37-3.44-3.46-3.62-.14-5.86.48-5.16,4.83a35.68,35.68,0,0,1,.06,5.47c0,10.72,0,10.81,11,10.81,12,0,11.56,1.33,11.46-11.11ZM533.61,229.72h5c5.89-.08,6.65-.82,6.69-6.59,0-3.33-.08-6.66,0-10s-1.64-4.49-4.62-4.49h-13c-1.31,0-2.87,0-2.88,1.88,0,1.73,1.36,2.17,2.76,2.23,2,.09,4-.07,6,.05,1.35.08,3.23-.56,3.52,1.72s-1.47,2-2.89,2.37a45.6,45.6,0,0,1-6.35,1.11c-4.24.48-5.17,3.41-4.93,7.21s2.42,4.72,5.72,4.48C530.28,229.61,532,229.7,533.61,229.72Zm394,0h0a23.22,23.22,0,0,1,5,0c5.18,1.15,6.36-1.64,6.3-5.94,0-3.48-.12-7,0-10.44.1-3.17-1.46-4.65-4.43-4.7-4.48-.08-9,0-13.43,0-1.39,0-2.8,0-2.7,1.94.09,1.69,1.24,2.19,2.73,2.19,2.33,0,4.65-.05,7,0,1.37,0,2.73.23,2.76,2.09,0,1.65-1.17,1.67-2.36,1.85-2.28.35-4.54.9-6.83,1.19-4.15.51-5.64,3.08-5.44,6.9s2.38,5.17,6,4.9c1.79-.08,3.57,0,5.4,0Zm-199.88-9.8c0,2.33.13,4.66,0,7-.22,3.2,1.89,2.88,3.92,2.83s4.5.57,4.33-3,0-7.3,0-10.95c0-2.13.94-2.94,3-3,2.22,0,2.86,1,2.82,3.07-.08,3.82-.06,7.63,0,11.45,0,1-.28,2.2,1.32,2.59,4.46,1.1,6.83-.58,6.92-5.06v-5.48c0-10.75,0-10.78-10.92-10.69-12.51.1-11.37-.9-11.39,11.25Zm-387.22-1.31a58.19,58.19,0,0,1,0-6.47c.4-3.58-1.78-3.53-4.31-3.56-2.75,0-4.48.55-4.23,3.86.23,3,.09,6,0,9,0,1.93.48,4-2.71,4.21-3.36.19-2.79-2-2.81-3.89,0-3.49-.06-7,0-10.46.05-3.3-2.39-2.52-4.22-2.57s-4.25-.61-4.21,2.62c0,4.65,0,9.3.08,13.94.07,3,1.62,4.53,4.75,4.47,3.65-.08,7.31-.11,11,0,5.44.22,6.49-.68,6.63-6.16,0-1.66,0-3.32,0-5Zm66.21,1.32a32.24,32.24,0,0,1-.05,5.47c-.74,4.26,1.41,4.55,4.87,4.44,2.95-.1,3.71-1.1,3.55-3.82-.2-3.31,0-6.65-.09-10-.09-2.39.9-3.27,3.22-3.27s2.8,1.14,2.74,3.14c-.08,3.15.23,6.33-.07,9.46-.35,3.62,1.1,4.36,4.5,4.48,3.6.12,3.64-1.56,3.54-4.17-.13-3.65-.2-7.32,0-11,.28-4.65-2-6.3-6.31-6.1-1.49.07-3,0-4.49,0-11.27.2-11.64-1.48-11.41,11.38Zm169.94,9.74c12.81.2,11.41.48,11.49-11.64,0-1.82-.08-3.65,0-5.48,0-2.7-1.27-3.89-4-3.86-4.65.06-9.31,0-14,0-1.48,0-2.72.2-2.66,2.06s1.36,2,2.78,2.05c2.5,0,5,0,7.48.08,1.33,0,2.24.48,2.16,2.05-.06,1.22-.62,1.7-1.82,1.86-2.29.3-4.55.94-6.85,1.11-4.6.36-5.66,3-5.51,7.14s2.41,5,5.92,4.66c1.68-.15,3.35,0,5,0Zm-132,0c1.83,0,3.66.08,5.48,0,1.6-.09,4,1.05,3.93-2.13s-2.63-1.71-4.13-2a25.78,25.78,0,0,0-4.48,0c-1.68,0-3.46.16-3.61-2.29-.16-2.69,1.8-2.25,3.4-2.29a29.81,29.81,0,0,1,5,0c4.75.69,6.39-1.06,6.09-6-.28-4.52-1.67-6.86-6.48-6.43-2,.18-4,.08-6,.07-11.32,0-10.37-.67-10.33,10.1.05,11.08-1.64,11.3,11.14,11Zm24.33,0h0c2,0,4-.09,6,0,4.23.25,5.8-1.1,5.36-5.82-.33-3.57-2-4.48-4.67-5.06-2.24-.47-4.55-.64-6.74-1.27a2.84,2.84,0,0,1-2.25-2.93c.08-2,1.6-1.78,2.88-1.81,2.33-.05,4.66.06,7,0a2.29,2.29,0,0,0,2.52-2,3.38,3.38,0,0,0,0-.45c-.08-1.59-1.43-1.62-2.6-1.64-4,0-8,0-12-.08-3,0-5.88.07-6.14,4-.24,3.55.27,6.73,4.64,7.42,2.13.34,4.28.53,6.39.93,1.43.27,3.24.52,3.19,2.48s-1.76,2.07-3.32,2.06a20.91,20.91,0,0,0-5,.06c-1.87.45-5.37-2-5.33,2.07,0,3.62,3.28,1.58,5.07,1.93a25.43,25.43,0,0,0,5,.17Zm431.18-12c-.18,14.76.15,11.53,11.24,12.2.16,0,.31.17.46.18,1.41.05,2.73-.13,2.94-1.87s-.71-2.87-2.6-2.63c-3.4.42-3.87-1.46-3.61-4.21a41.7,41.7,0,0,0,0-5c-.06-1.93-.13-3.8,2.69-3.59,1.3.1,2.32-.3,2.37-1.84a2.08,2.08,0,0,0-2.42-2.38c-1.15,0-2.4.22-2.55-1.52-.37-4.52-3.91-2.64-6.12-2.71-3.1-.11-2.27,2.65-2.36,4.47-.13,2.55,0,5,0,8.94Zm-545,12.07h5.48c1.57,0,3.65.52,3.61-2.11s-2.12-2-3.67-2c-7.38-.3-7-.32-7.5-6.82-.37-4.95,1.28-6.75,6.06-5.95a7.44,7.44,0,0,0,2,0c1.28-.15,2.18-.74,2.16-2.22s-.91-2-2.26-2h-5c-12.56.08-10.83-.49-10.91,11.11-.14,10.13-.95,10.22,10,10ZM605,216c0,13.2.06,13.07,12.39,14,1.81.13,1.78-.53,2-1.49s.52-2.84-1-2.78c-7.9.33-4.42-5.49-5-9-.32-2-.43-4.13,2.75-3.93a2,2,0,0,0,2.19-1.79,2.16,2.16,0,0,0,0-.36c.06-2-1.26-2-2.68-1.94-1,0-2.1-.07-2.19-1.4-.33-4.84-4.08-3-6.41-2.95-3,.1-1.88,2.93-2,4.71C604.84,211.39,605,213.72,605,216Zm338.4-1.6v6.48c0,8.6,1.84,10.16,10.3,8.83,1-.16,2.15-.17,2.34-1.37.15-.9.27-2.45-.94-2.48-4.65-.14-3.42-3.47-3.45-6.06q-.1-7.23,0-14.45c0-2.79.27-5-3.93-5.09s-4.56,1.93-4.36,5.17C943.53,208.41,943.39,211.41,943.4,214.4Zm-639.84-.51h-.06v10.93c0,3,1.2,4.77,4.34,4.85,2,.05,4,0,6,0,1,0,2,0,2.14-1.42.1-1.19.18-2.61-1.43-2.59-3.11,0-2.6-2.2-3-4.07-1.1-5.46.64-10.85.22-16.3-.21-2.75.28-5.09-4-5-3.7.08-4.47,1.41-4.24,4.63C303.72,207.91,303.56,210.9,303.56,213.89Zm254.67-5.19c-8.09,0-8.44.28-8.46,8.29v10c0,1.11-.18,2.21,1.41,2.74,4.52,1.49,7.23-.33,7.27-5.12v-9c0-1.62.3-2.93,2.49-2.77,1.76.13,3.63-.37,3.38-2.58s-2.24-1.47-3.64-1.57C559.89,208.65,559.06,208.7,558.23,208.7ZM887,219.19h0a24,24,0,0,1,0,4.48c-1,5,1.1,6,5.75,5.48,2.4-.28,3.13-.67,3-3-.15-4.16-.22-8.33,0-12.48.17-3.35-.29-5.22-4.45-5.16s-4.74,1.84-4.36,5.21A49.91,49.91,0,0,1,887,219.19Zm-39.26.1c0,2.48.14,5,0,7.43-.26,3.52,2.15,3.06,4.25,3s4.53.76,4.41-2.86c-.13-4.28-.12-8.58.06-12.87.15-3.39-.18-5.47-4.62-5.49s-4.15,2.46-4.07,5.33c0,1.83-.06,3.64-.06,5.46Zm-472.45.54h0c0-2.31-.14-4.64,0-6.94.24-3.16-.88-4.43-4.2-4.36-3,.06-4.59.68-4.36,4.14.26,4.11.14,8.26,0,12.39-.1,3,.09,4.85,4.08,4.81s4.8-1.7,4.42-5.09a43,43,0,0,1,0-4.95Zm516-21.26c-3.1-.53-4.4.63-4.44,4s2,3.28,4.18,3.16,4.81.84,4.76-3.13c-.06-3.28-1.25-4.6-4.51-4Zm-39.1,7.09c2.25.35,4.27.32,4.29-3.25s-1.84-3.89-4.69-3.89-4.16.5-4.19,3.77c0,3.5,1.7,3.77,4.58,3.37Zm-481.47.08c2.63.14,4.74.31,4.65-3.39-.07-3.17-1.25-4-4.14-3.85-2.39.16-4.5-.14-4.47,3.51,0,3.26,1.32,4.11,3.95,3.73Z"/><path class="cls-2" d="M87,181.05a58.63,58.63,0,0,1-24.08-25.67C49.57,128,52.06,101,66.49,74.83c14.33-26,37.69-38.93,66.11-43.47,27.79-4.43,53.38,1.41,76.07,18.5,3.77,2.83,4.22,5.72,1.42,9.53-4,5.45-8.19,10.75-12.05,16.29-2.37,3.39-4.27,7.12-6.4,10.68-3.81,6.35-6.58,7.14-13.57,4.65-19.87-7.09-39.73-9.61-59.21,1.24C99.65,102.94,89.12,119.6,85.38,141c-2.21,12.68-1.3,25.15,1.59,37.58A12.74,12.74,0,0,1,87,181.05Z"/><path class="cls-3" d="M222.52,131.48c0-14.64.12-29.28-.07-43.92-.06-4.29,1.31-5.9,5.7-5.64a169.86,169.86,0,0,0,17.48,0c4-.17,5.32,1.44,5.27,5.23-.11,10.81.25,21.64-.18,32.44-.18,4.68,1.4,5.5,5.59,5.33,8-.32,16-.27,24,0,3.62.13,4.91-.71,4.82-4.57-.25-10.81,0-21.63-.12-32.44-.06-4.31,1.07-6.37,5.93-6a163.76,163.76,0,0,0,18,0c3.49-.13,4.87,1.46,4.92,4.64v86.36c0,8.26-.44,8.73-8.49,8.78-4.83,0-9.66-.16-14.48,0-4.31.19-6-1.58-5.93-5.87.16-11.15,0-22.3.12-33.44,0-2.72-.59-3.74-3.5-3.68-9,.18-18,.23-27,0-3.28-.08-3.79,1.14-3.75,4,.15,10.82,0,21.63.13,32.45.07,4.5-1.22,6.88-6.27,6.55a115.45,115.45,0,0,0-16,0c-5,.36-6.29-1.81-6.24-6.36.16-14.64.06-29.28.06-43.93Z"/><path class="cls-2" d="M699.48,181.78c-11,0-22,.05-33,0-5.71,0-6.67-1.2-6.58-7.38.08-5.48,1.32-6.75,6.81-6.75,15.82,0,31.64.11,47.47,0,7.28,0,8.47-1.34,8.51-8.45,0-3.33-.12-6.66,0-10,.18-4.43-2-6.86-6.13-7.79-9.23-2.1-18.48-4.12-27.71-6.24-5.73-1.32-11.49-2.58-17.13-4.22-7.35-2.12-12.09-7.33-13-14.71-1-7.67-1.61-15.57.75-23.24,2.06-6.68,7.35-11,14.35-11,21.66-.11,43.31.06,65-.14,6.08-.06,5.34,3.76,5.55,7.64.23,4.41-1.35,6.44-6,6.39-14.33-.15-28.65-.12-43-.08-6.7,0-8.63,2-8.66,8.58-.08,17.17-.57,15.79,15.48,19.63,11.46,2.74,23,5,34.4,8.18,10.22,2.85,14,8.41,14.3,19,.12,4.16.12,8.33.05,12.49-.2,11.66-6.18,17.8-18,18-11.16.21-22.32,0-33.48,0Z"/><path class="cls-2" d="M803.18,109.3c7.82,0,15.65-.12,23.48,0,9.48.18,14.86,5.45,15,15q.27,21.21,0,42.44c-.08,8.53-6.08,14.82-14.8,15-16.14.27-32.32.53-48.44-.09-9.13-.36-14.46-4.87-14.35-14.8.16-14.48,0-29,0-43.43,0-8.3,4.32-13.35,12.58-13.76,8.8-.43,17.64-.09,26.46-.09Zm-10.56,35.9h-.09v9c0,14.19,1,14.93,15.25,13.45,3.72-.39,5.24-2,5.18-5.72-.13-8.3.07-16.61,0-24.91-.17-15.23,2.72-14.09-15.31-13.85-3.82.06-5.19,1.91-5.06,5.62.17,5.44,0,10.93,0,16.41Z"/><path class="cls-3" d="M381,109.53h4.17a8.89,8.89,0,0,0,4.88-.06c13.32-.71,18.43,6.54,18.1,18-.37,12.6,0,25.22-.09,37.82,0,7.69-2.31,14.26-12.43,16h-.09l-2.94.23v0h-6.44q-18.54-.69-37.11,0c-13.26.47-18.79-4.78-18.75-17.81,0-12.45,0-24.9.09-37.35s4.74-17,17.17-17c2.82,0,5.64,0,8.45.07A226.44,226.44,0,0,0,381,109.53Zm-21.8,35.6c0,6.16.08,12.31,0,18.47-.05,3,1.14,4.18,4.15,4.06,4-.15,8,0,12,0,2.75,0,4.23-1,4.2-4.15q-.18-18,0-35.93c0-3.36-1.5-4.41-4.48-4.38H363.59c-3,0-4.56,1.1-4.43,4.48.14,5.8,0,11.63,0,17.45Z"/><path class="cls-3" d="M165.5,207.16c-21.08-.29-37.23-4.1-51.33-14.9-10.33-7.92-15.54-18.66-18.55-30.92a54.3,54.3,0,0,1,24.53-59.55c1.52-.93,3.28-2.62,4.95-1.32,1.88,1.47.22,3.47-.57,5-3.7,6.94-6.09,14.25-5,22.11,2.13,16.19,9,35.61,24.89,41.38,9.13,3.31,18.23,2.77,27.41.62,7.6-1.79,9.14-1.2,13.37,5.48,2.36,3.73,4.76,7.44,7,11.25a11.28,11.28,0,0,1-4,15.45,11.17,11.17,0,0,1-1.24.64C179,206,170.56,207.49,165.5,207.16Z"/><path class="cls-3" d="M525.48,123.22H513.29c-2.61,0-4.4.92-4.67,3.75a87,87,0,0,0,0,17.08v7a186.14,186.14,0,0,0,0,22.9c.4,6.68-.54,7.78-6.79,7.8-5.33,0-10.65-.07-16,.05-3.72.08-5.45-1.37-5.42-5.27.1-17.64,0-35.27.1-52.91.07-8.82,4.67-13.83,13.45-14,16.64-.29,33.29-.25,49.93,0,7.8.11,12.88,5.3,13,13.56.26,18,0,35.93,0,53.9,0,2.66-.81,4.63-3.9,4.63H532.52c-1.76,0-3.29-.59-3.8-2.55.06-13.94.19-27.89.13-41.85,0-4.26.66-8.57-.46-12.81l-2.69-1.17Z"/><path class="cls-3" d="M582.81,181.49c-9.51-.68-14-5.73-14-16.84a49.73,49.73,0,0,1,.25-8c1.35-7.88,6.06-12.73,14-14.13,10.29-1.83,20.57-3.71,30.91-5.1,3.32-.44,4-1.61,4.09-4.64.14-9.59.25-9.58-9.4-9.58-8.82,0-17.64-.14-26.45.06-4.37.09-6.73-1.18-6.08-6a20.56,20.56,0,0,0,0-4c-.17-2.71,1-4,3.76-4,17.47,0,35-.49,52.4.29,9.28.41,14,5.83,14,14.46-.09,14,.15,28-.09,41.91-.19,10.56-2.72,13.25-13.05,15.44l-1.31.06h-3.78q-18.54-.6-37.11,0h-6.87Zm25-13.87h0c2.16,0,4.32.07,6.47,0,1.74-.07,3.58-.5,3.62-2.61.08-4.44,1.64-9.63-.67-13.09-1.72-2.59-6.42.32-9.79.66-2.3.24-4.54.92-6.83,1.24a3.28,3.28,0,0,0-3,2.85c-2.09,8.21-.06,10.94,8.17,10.92Z"/><path class="cls-2" d="M856.59,135.46c0-13.15-.06-26.3,0-39.45,0-8.73,5.3-14,14-14,10.16,0,20.32,0,30.47,0,3.19,0,5.3.88,4.86,4.5s2.18,8.71-4.34,9.21a87.49,87.49,0,0,1-11.45-.12c-3.81-.22-5.42,1.37-5.63,5.16-.46,8.45-.35,8.69,8,8.82h2c7.82.08,9.76,2.66,7.93,10.35-.53,2.22-1.95,3-4,3-3,0-6,0-8.94-.06-3.73-.07-5.29,1.47-5.1,5.41.78,16,.46,31.93.13,47.9-.08,4.24-1.7,5.69-5.57,5.65-5.83-.06-11.66-.23-17.48,0-3.78.16-4.93-1.37-4.91-4.92C856.66,163.09,856.6,149.28,856.59,135.46Z"/><path class="cls-2" d="M915.63,134.71c0-11.14.09-22.28,0-33.42,0-4,1.25-5.76,5.49-5.56,5.81.26,11.65.22,17.46,0,3.93-.16,5.4,1.47,5.34,5.25,0,2.8-.64,6.45.82,8.16,1.13,1.31,5.09.18,7.79.15H954c7,.12,10.36,5.37,7.52,11.78-.75,1.7-2.19,1.84-3.71,1.87-3.33.07-6.66.21-10,.13-3-.08-4,1.21-4,4.18q.18,17.7,0,35.41c0,3.66,1.55,5.09,5.1,5,3.82-.1,7.65,0,11.47.08,5.52.19,4.73,4.26,4.88,7.91s-.47,6.18-4.93,6.14c-10.15-.09-20.31.26-30.44-.07-9.07-.3-13.92-5.45-14.09-14.58-.2-10.8-.05-21.61-.05-32.42Z"/><path class="cls-3" d="M422.82,149.92c0-8.49-.18-17,0-25.45.27-10.28,5-14.91,15.2-15,9.82-.14,19.64.13,29.46-.12,4.73-.12,5.56,2.19,5.41,6.17s.54,8-5.5,7.68c-3.65-.19-7.32.06-11,0s-5.19,1.46-5.14,5.37c.18,15.47.05,30.94.08,46.41,0,6.45-1.83,7.74-8.29,7a94.45,94.45,0,0,0-14.47-.12c-4.25.15-6.05-1.6-6-5.88.14-8.65,0-17.3,0-26Z"/><path class="cls-3" d="M661.67,219.91c.11-11.87-1-11.63,11.5-11,5.71.28,11.33-.41,17-.3,4.14.08,6.23,1.5,6.06,5.87a112.7,112.7,0,0,0,.06,11.48c.19,3.22-1.26,3.92-4.15,3.88s-4.86-.33-4.55-4a88.17,88.17,0,0,0,0-9.48c0-1.58.45-3.57-2.29-3.41-2.59.15-2.12,2-2.13,3.65a59.33,59.33,0,0,0,0,8c.65,4.85-1.82,5.55-5.82,5.27-2.31-.17-2.71-1.12-2.64-3.12.12-3.32,0-6.66,0-10,0-1.81.41-3.94-2.48-3.85s-2.23,2.33-2.26,4a93.68,93.68,0,0,0,.07,9.48c.28,3.25-1.44,3.47-3.93,3.38s-4.85.41-4.49-3.36A63.84,63.84,0,0,0,661.67,219.91Z"/><path class="cls-3" d="M842.87,215.07v5c0,9.8,0,9.8-10,9.69-12.55-.13-12.55-.13-12.51-12.76,0-8.19.21-8.49,8.39-8.23,3.7.12,6.16-.3,5.53-4.94-.55-4.11,2.7-3.15,5-3.42,2.92-.35,3.76.93,3.61,3.71C842.71,207.75,842.87,211.41,842.87,215.07Zm-8.68,5V216.7c0-2,.42-3.93-2.85-3.82-3,.1-2.45,1.94-2.47,3.66,0,2.14.06,4.28,0,6.42-.07,1.92.83,2.64,2.66,2.64,5.27-.07,1.24-4.26,2.66-5.6Z"/><path class="cls-3" d="M776.38,215.82c-.46,4,2,10.15-1.11,13.11-2.87,2.68-8.89.72-13.52.74-7.52,0-7.7-.21-7.66-7.72v-2c0-12.19-.74-11.49,10.81-11.24,4,.09,3.42-2.43,3.11-4.54-.48-3.24.84-3.9,3.74-3.84,2.74.06,5-.07,4.67,3.78C776.17,207.74,776.38,211.42,776.38,215.82Zm-8.24,4c0-1.35.08-2.36,0-3.34-.17-1.59.79-3.67-2.43-3.64-2.86,0-3.32,1.32-3.23,3.64a53.68,53.68,0,0,1,0,6c-.2,2.85,1.44,3.61,3.71,3.12,3.9-.87.81-4.23,1.95-5.77Z"/><path class="cls-3" d="M860.54,223.16v-9.49c0-3.16,1.45-5,4.78-4.95h12c3.14,0,5.09,1.15,4.78,4.75-.3,3.44,1.34,7.83-4.36,8.34-2.15.19-4.33,0-6.49.09-.76,0-1.79-.16-2,1s.57,1.83,1.68,2c2.3.34,4.62.57,6.91,1,4.17.73,5.81,3.28,5.47,7.46-.36,4.37-3.45,4.21-6.5,4.22H865.33c-3.25,0-4.94-1.39-4.8-4.83C860.64,229.49,860.54,226.32,860.54,223.16Zm14.15,7.94c-.16-2.09-2.42-1.46-3.78-2-1.71-.67-1.81.71-1.86,2-.07,2.08,1.06,2.57,2.86,2.32C873.17,233.23,874.77,233.59,874.69,231.1Zm-3.37-18.28c-1.77-.09-2.27,1-2.31,2.5a2.11,2.11,0,0,0,2.37,2.42c2,0,2.67-.91,2.62-2.74S872.77,212.86,871.32,212.82Z"/><path class="cls-3" d="M497,223v-3c0-11.29,0-11.31,11.56-11.28,9.56,0,11.55-1.85,11.18,11.16v4.48c0,3.73-1.79,5.49-5.5,5.4-1.49,0-3,.12-4.48,0-3.1-.32-4.7.66-4.17,4.06.63,3.93-2.09,3.59-4.68,3.71-3,.15-4.19-1-4-4,.22-3.47,0-7,0-10.46Zm8.57-4.51v3.83c0,1.63-.44,3.34,2.29,3.32,2.54,0,3.09-1.25,3-3.41s0-4.63,0-6.95c0-1.8-.66-2.54-2.74-2.43-5.33.23-1,4.26-2.51,5.61Z"/><path class="cls-3" d="M259.86,200.4c2.33,0,4.67-.11,7,0,1.61.1,4.18-.82,4,2.19s-2.77,1.65-4.3,1.8c-2.47.23-5,0-7.49,0-2.24,0-4.75-.62-4.76,3.24,0,3.3.92,5.42,4.26,6.1,3.15.63,6.38,1,9.46,1.89,4.45,1.28,5.7,4.1,4.37,9.88-.73,3.16-3.08,4.31-6.36,4.2-5.49-.18-11,0-16.49-.07-1.49,0-3.21.08-3.2-2.13s1.69-2,3.21-2c3.5,0,7-.17,10.49,0,2.44.11,4.32-.1,4.43-3.12.1-2.61-.51-4.35-3.64-4.74a65,65,0,0,1-9.65-2.27c-5.56-1.63-7.25-4.14-6.14-10,.84-4.4,4.36-5.27,8.31-5.09,2.16.09,4.33,0,6.5,0Z"/><path class="cls-3" d="M792,229.73l-5.15.29c-3.91.22-5.72-1.84-6-5.54a7.42,7.42,0,0,1,0-1.49c.64-4.47-2.36-10.52,1.9-13.11,5.21-3.15,12-1.18,18-.87,2.31.12,3,2.69,3,5v9c0,5.91-.73,6.67-6.45,6.76C795.66,229.75,794,229.73,792,229.73Zm-2.29-11.1h0v3.45c0,1.8-.37,3.61,2.57,3.56s3.24-1.49,3.13-3.78c-.11-2.13,0-4.27,0-6.41s-1.4-2.59-3.34-2.6c-2.14,0-2.41,1.16-2.34,2.82a26.59,26.59,0,0,1,.07,3Z"/><path class="cls-3" d="M391,229.69c-11.44,0-11.37,0-11.48-11.41s1-9.4,9.35-9.57h1.5c13.81-.18,11.9-.49,11.92,11.52C402.28,229.71,402.17,229.71,391,229.69Zm-2.54-10.52v2.47c0,2-.4,4,2.8,4,3,0,3.09-1.74,3-3.9s0-4.29,0-6.44c0-2-1.24-2.49-2.94-2.51s-3,.35-2.9,2.42c.05,1.31,0,2.63,0,4Z"/><path class="cls-3" d="M622.47,218.24a41.84,41.84,0,0,0,0-4.48c-.35-3.24,0-5.18,4.24-5.23,4.59-.05,4.22,2.44,4.13,5.4s.09,6,0,9c-.08,2,.8,2.63,2.65,2.62s2.89-.55,2.88-2.52c0-3.66.12-7.33,0-11s2.09-3.32,4.58-3.41,4.12.27,4,3.41c-.2,4,0,8,0,12s-2,6-6.12,5.76c-3.16-.16-6.33,0-9.49-.06-6.06,0-6.5-.49-6.65-6.49,0-1.66-.15-3.32-.22-5Z"/><path class="cls-3" d="M288.05,208.69c12.31,0,11-.74,11,11,0,10.08-.05,10.11-10.07,10-12.9-.1-12.51,1.76-12.33-12.33C276.76,208.66,276.78,208.66,288.05,208.69ZM291,219.4a20.52,20.52,0,0,1,0-2.48c.31-2.86-.54-4.34-3.81-4.1s-2.69,1.39-2.56,4c.1,2.12.76,4.33.42,6.54s1.29,2.22,2.85,2.16,3.13.09,3.08-2.17C291,222.05,291,220.73,291,219.4Z"/><path class="cls-3" d="M722.9,218.56c.12,12.41.54,11.15-11.4,11.15-10.9,0-10.9-.09-11-10.81a35.68,35.68,0,0,0-.06-5.47c-.7-4.35,1.54-5,5.16-4.83,2.56.09,3.58.83,3.44,3.46-.17,3.14,0,6.3,0,9.45,0,1.94-.56,4.13,2.7,4.08s3.22-2.05,3.16-4.37c-.07-3.15.14-6.31-.06-9.45-.21-3.46,2-3.12,4.22-3.13s4.07-.15,3.86,3C722.77,213.9,722.9,216.24,722.9,218.56Z"/><path class="cls-3" d="M533.61,229.71c-1.66,0-3.33-.1-5,0-3.3.24-5.47-.69-5.72-4.48s.69-6.73,4.93-7.21a45.6,45.6,0,0,0,6.35-1.11c1.42-.36,3.2-.07,2.89-2.37s-2.17-1.64-3.52-1.72c-2-.12-4,0-6,0-1.4-.06-2.77-.5-2.76-2.23,0-1.9,1.57-1.87,2.88-1.88h13c3,0,4.69,1.27,4.62,4.49s0,6.65,0,10c0,5.77-.8,6.51-6.69,6.59Zm1.13-8.72c-1,.39-3.23.15-3.51,2.52-.22,1.85,1.21,2,2.64,2.05,1.8,0,3.35-.14,3.3-2.55,0-1.27-.12-2.36-2.43-2Z"/><path class="cls-3" d="M927.61,229.73c-1.83,0-3.66-.11-5.47,0-3.62.27-5.8-1.15-6-4.9s1.29-6.39,5.44-6.9c2.29-.29,4.55-.84,6.83-1.19,1.19-.18,2.39-.2,2.36-1.85,0-1.86-1.39-2.06-2.76-2.09-2.32-.05-4.64,0-7,0-1.49,0-2.64-.5-2.73-2.19-.1-2,1.31-1.94,2.7-1.94,4.47,0,9-.1,13.43,0,3,0,4.53,1.53,4.43,4.7-.12,3.47,0,7,0,10.44.06,4.3-1.12,7.09-6.3,5.94a23.22,23.22,0,0,0-5,0Zm3.2-6.6c.14-1.35-.19-2.41-1.81-2.18s-3.85-.13-4.1,2.52c-.18,1.93,1,2.19,2.49,2.1,1.66-.08,3.49.06,3.42-2.44Z"/><path class="cls-3" d="M727.74,219.93c0-12.15-1.13-11.15,11.33-11.25,10.92-.09,10.92-.06,10.92,10.69v5.48c-.09,4.48-2.46,6.16-6.92,5.06-1.6-.39-1.31-1.56-1.32-2.59,0-3.82,0-7.63,0-11.45,0-2-.6-3.11-2.82-3.07-2.06,0-3,.85-3,3,.07,3.65-.15,7.31,0,10.95s-2.22,3-4.33,3-4.14.37-3.92-2.83C727.86,224.59,727.73,222.26,727.74,219.93Z"/><path class="cls-3" d="M340.51,218.62c0,1.66.05,3.32,0,5-.14,5.48-1.19,6.38-6.63,6.16-3.65-.14-7.31-.11-11,0-3.13.06-4.68-1.52-4.75-4.47-.13-4.64,0-9.29-.08-13.94,0-3.23,2.3-2.67,4.21-2.62s4.27-.73,4.22,2.57v10.46c0,1.92-.55,4.08,2.81,3.89,3.19-.18,2.69-2.28,2.71-4.21,0-3,.18-6-.05-9-.25-3.31,1.48-3.9,4.23-3.86,2.53,0,4.71,0,4.31,3.56A60.52,60.52,0,0,0,340.51,218.62Z"/><path class="cls-3" d="M406.72,219.94c-.23-12.86.14-11.18,11.43-11.26h4.49c4.29-.2,6.59,1.45,6.31,6.1a109.08,109.08,0,0,0,0,11c.1,2.61.06,4.29-3.54,4.17-3.4-.12-4.85-.86-4.5-4.48.3-3.13,0-6.31.07-9.46.06-2-.47-3.14-2.74-3.14s-3.31.88-3.22,3.27c.13,3.31-.11,6.65.09,10,.16,2.72-.6,3.72-3.55,3.82-3.46.11-5.61-.18-4.87-4.44A32.5,32.5,0,0,0,406.72,219.94Z"/><path class="cls-3" d="M576.66,229.68c-1.66,0-3.33-.13-5,0-3.51.33-5.77-.48-5.92-4.66s.91-6.78,5.51-7.14c2.3-.17,4.56-.81,6.85-1.11,1.2-.16,1.76-.64,1.82-1.86.08-1.57-.83-2-2.16-2-2.49,0-5,0-7.48-.08-1.42,0-2.73-.22-2.78-2.05s1.18-2.07,2.66-2.06c4.65,0,9.31.07,14,0,2.69,0,4,1.16,4,3.86,0,1.83.06,3.66,0,5.48C588.07,230.16,589.47,229.88,576.66,229.68ZM574,224c.26,2.13,2.09,1.43,3.43,1.54,1.9.16,2.63-.8,2.57-2.7s-1.19-2.21-2.63-1.87S573.92,221.48,574,224Z"/><path class="cls-3" d="M444.67,229.69c-12.78.26-11.09.09-11.13-10.9,0-10.77-1-10.14,10.33-10.1,2,0,4,.11,6-.07,4.81-.43,6.2,1.91,6.48,6.43.3,4.9-1.34,6.65-6.09,6a29.81,29.81,0,0,0-5,0c-1.6,0-3.56-.4-3.4,2.29.15,2.45,1.93,2.29,3.61,2.29a25.78,25.78,0,0,1,4.48,0c1.5.26,4-1.18,4.13,2s-2.33,2-3.93,2.13C448.33,229.78,446.5,229.7,444.67,229.69Zm.24-16.86c-1.54,0-3.1,0-3,2.23.09,1.92,1.49,1.83,2.85,1.85,1.55,0,3.09.13,2.94-2.16C447.58,212.89,446.35,212.74,444.91,212.83Z"/><path class="cls-3" d="M469,229.71a26.1,26.1,0,0,1-5-.07c-1.79-.35-5,1.69-5.07-1.93,0-4.09,3.46-1.62,5.33-2.07a20.91,20.91,0,0,1,5-.06c1.56,0,3.26,0,3.32-2.06s-1.76-2.21-3.19-2.48c-2.11-.4-4.26-.59-6.39-.93-4.37-.69-4.88-3.87-4.64-7.42.26-4,3.16-4.08,6.14-4,4,0,8,0,12,.08,1.17,0,2.52,0,2.6,1.64a2.28,2.28,0,0,1-2.07,2.47,1.7,1.7,0,0,1-.45,0c-2.32.08-4.65,0-7,0-1.28,0-2.8-.24-2.88,1.81a2.85,2.85,0,0,0,2.3,2.91c2.19.63,4.5.8,6.74,1.27,2.72.58,4.34,1.49,4.67,5.06.44,4.72-1.13,6.07-5.36,5.82-2-.11-4,0-6,0Z"/><path class="cls-3" d="M900.18,217.66c0-3.9-.1-6.39,0-8.87.09-1.82-.74-4.58,2.36-4.47,2.21.07,5.75-1.81,6.12,2.71.15,1.74,1.4,1.56,2.55,1.52,1.67-.05,2.48.72,2.42,2.38s-1.07,1.94-2.37,1.84c-2.82-.21-2.75,1.66-2.69,3.59a41.7,41.7,0,0,1,0,5c-.26,2.75.21,4.63,3.61,4.21,1.89-.24,2.83.74,2.6,2.63s-1.53,1.92-2.94,1.87c-.15,0-.3-.17-.46-.18C900.33,229.19,900,232.42,900.18,217.66Z"/><path class="cls-3" d="M355.13,229.73c-10.94.19-10.1.1-10-10,.08-11.6-1.65-11,10.91-11.11h5c1.35,0,2.23.47,2.26,2s-.88,2.07-2.16,2.22a7.44,7.44,0,0,1-2,0c-4.78-.8-6.43,1-6.06,5.95.48,6.5.12,6.52,7.5,6.82,1.55.07,3.63-.58,3.67,2s-2,2.07-3.61,2.11C358.78,229.76,357,229.73,355.13,229.73Z"/><path class="cls-3" d="M605,216c0-2.32-.11-4.65,0-7,.12-1.78-1-4.61,2-4.71,2.33-.07,6.08-1.89,6.41,3,.09,1.33,1.14,1.45,2.19,1.4,1.42-.07,2.74,0,2.68,1.94a2,2,0,0,1-1.83,2.15,2.16,2.16,0,0,1-.36,0c-3.18-.2-3.07,2-2.75,3.93.56,3.54-2.92,9.36,5,9,1.53-.06,1.24,1.69,1,2.78s-.17,1.62-2,1.49C605,229.11,605,229.24,605,216Z"/><path class="cls-3" d="M943.39,214.4c0-3,.14-6,0-9-.2-3.24.13-5.21,4.36-5.17s4,2.3,3.93,5.09q-.1,7.22,0,14.45c0,2.59-1.2,5.92,3.45,6.06,1.21,0,1.09,1.58.94,2.48-.19,1.2-1.34,1.21-2.34,1.37-8.46,1.33-10.31-.23-10.3-8.83Q943.4,217.64,943.39,214.4Z"/><path class="cls-3" d="M303.56,213.89c0-3,.16-6,0-8.95-.23-3.22.54-4.55,4.24-4.63,4.28-.11,3.79,2.23,4,5,.42,5.45-1.32,10.84-.22,16.3.38,1.87-.13,4.11,3,4.07,1.61,0,1.53,1.4,1.43,2.59-.11,1.37-1.11,1.42-2.14,1.42-2,0-4,.05-6,0-3.14-.08-4.37-1.88-4.34-4.85V213.91Z"/><path class="cls-3" d="M558.23,208.7h2.49c1.4.1,3.41-.5,3.64,1.57s-1.62,2.71-3.38,2.58c-2.19-.16-2.48,1.15-2.49,2.77v9c0,4.79-2.75,6.61-7.27,5.12-1.59-.53-1.4-1.63-1.41-2.74V217C549.79,209,550.14,208.65,558.23,208.7Z"/><path class="cls-3" d="M887,219.19a50.27,50.27,0,0,0,0-5.49c-.38-3.37.27-5.16,4.36-5.21s4.62,1.81,4.45,5.16c-.22,4.15-.15,8.32,0,12.48.09,2.35-.64,2.74-3,3-4.65.55-6.7-.52-5.75-5.48a24,24,0,0,0,0-4.48Z"/><path class="cls-3" d="M847.71,219.29v-5.45c-.08-2.87-.46-5.35,4.07-5.33s4.77,2.1,4.62,5.49c-.18,4.29-.19,8.59-.06,12.87.12,3.62-2.42,2.8-4.41,2.86s-4.51.51-4.25-3C847.85,224.25,847.71,221.77,847.71,219.29Z"/><path class="cls-3" d="M375.26,219.83a40.88,40.88,0,0,0,0,4.95c.38,3.39-.37,5.06-4.42,5.09s-4.18-1.85-4.08-4.81c.13-4.13.25-8.28,0-12.39-.23-3.46,1.33-4.08,4.36-4.14,3.32-.07,4.44,1.2,4.2,4.36-.18,2.3,0,4.63,0,6.94Z"/><path class="cls-3" d="M891.28,198.57c3.26-.55,4.45.75,4.5,4.05.05,4-2.63,3-4.76,3.13s-4.22.29-4.18-3.16S888.18,198,891.28,198.57Z"/><path class="cls-3" d="M852.18,205.66c-2.88.4-4.62.13-4.59-3.37,0-3.27,1.42-3.78,4.19-3.77s4.71.3,4.69,3.89S854.43,206,852.18,205.66Z"/><path class="cls-4" d="M528.32,124.42c1.12,4.24.44,8.55.46,12.81.06,14-.07,27.91-.13,41.85q-.23-24.11-.43-48.2C528.21,128.73,528.28,126.58,528.32,124.42Z"/><path class="cls-3" d="M370.71,205.74c-2.63.38-3.94-.47-4-3.73,0-3.65,2.08-3.35,4.47-3.51,2.89-.18,4.07.68,4.14,3.85C375.45,206.05,373.34,205.88,370.71,205.74Z"/><path class="cls-4" d="M591,181.56q18.56-.63,37.11,0Q609.46,182.22,591,181.56Z"/><path class="cls-4" d="M349,181.57q18.57-.72,37.11,0Q367.5,182.22,349,181.57Z"/><path class="cls-4" d="M381,109.53a226.62,226.62,0,0,1-25,0A183,183,0,0,1,381,109.53Z"/><path class="cls-4" d="M508.53,173.89a186.14,186.14,0,0,1,0-22.9A139,139,0,0,1,508.53,173.89Z"/><path class="cls-4" d="M508.58,144a87,87,0,0,1,0-17.08A88.61,88.61,0,0,1,508.58,144Z"/><path class="cls-4" d="M390,109.47a8.89,8.89,0,0,1-4.88.06A7.42,7.42,0,0,1,390,109.47Z"/><path class="cls-5" d="M582.81,181.49l1.27.06Z"/><path class="cls-4" d="M631.84,181.5l1.31-.06C632.73,181.94,632.29,181.85,631.84,181.5Z"/><polygon class="cls-5" points="392.52 181.55 392.53 181.38 392.55 181.55 392.52 181.55"/><polygon class="cls-5" points="395.49 181.32 395.58 181.33 395.53 181.53 395.49 181.32"/><polygon class="cls-5" points="525.48 123.22 525.63 123.25 525.49 123.5 525.48 123.22"/><path class="cls-1" d="M359.15,145.13c0-5.82.15-11.65-.07-17.46-.13-3.38,1.47-4.46,4.43-4.48H375c3,0,4.52,1,4.48,4.38q-.23,18,0,35.93c0,3.13-1.45,4.14-4.2,4.15-4,0-8-.12-12,0-3,.12-4.2-1.08-4.15-4.06C359.23,157.44,359.15,151.29,359.15,145.13Z"/><path class="cls-1" d="M607.82,167.62h-2c-8.23,0-10.26-2.71-8.17-10.92a3.28,3.28,0,0,1,3-2.85c2.29-.32,4.53-1,6.83-1.24,3.37-.34,8.07-3.25,9.79-.66,2.31,3.46.75,8.65.67,13.09,0,2.11-1.88,2.54-3.62,2.61-2.15.08-4.31,0-6.47,0Z"/><path class="cls-1" d="M388.44,219.17v-4c-.06-2.07,1.21-2.44,2.9-2.42s2.93.56,2.94,2.51v6.44c0,2.14-.08,3.88-3,3.9-3.2,0-2.84-2-2.8-4C388.44,220.82,388.43,220,388.44,219.17Z"/><path class="cls-1" d="M291,219.4v4c0,2.26-1.56,2.12-3.08,2.17s-3.21.15-2.85-2.16-.32-4.42-.42-6.54c-.13-2.64-.58-3.8,2.56-4s4.12,1.24,3.81,4.1A21.89,21.89,0,0,0,291,219.4Z"/></g></g></g></g></svg>