<svg xmlns="http://www.w3.org/2000/svg" viewBox="0 0 377.98 224.26"><defs><style>.cls-1{fill:#eee;}.cls-2{fill:#666;}.cls-3{font-size:88px;fill:#29a7de;stroke:#000;stroke-miterlimit:10;stroke-width:0.1px;font-family:RubikMaze-Regular, Rubik Maze;}.cls-4{fill:#1b1464;}.cls-5{letter-spacing:0em;}</style></defs><g id="Capa_2" data-name="Capa 2"><g id="Capa_1-2" data-name="Capa 1"><path class="cls-1" d="M262,2.68H19A18.67,18.67,0,0,0,8.48,5.74,11.19,11.19,0,0,0,4,11.85L2.48,174.7a8.24,8.24,0,0,0,3,6.6,10,10,0,0,0,6,1.88c6.16.14,152.31.14,352,0a12.92,12.92,0,0,0,9-3.77,11.36,11.36,0,0,0,3-9.42q-.24-78.69-.5-157.37a11.54,11.54,0,0,0-3.5-6.88C368.32,2.9,364,2.68,362,2.68H283"/><path class="cls-2" d="M262,.18H21C14.18.18,6.79,1.7,3,8c-1.88,3.11-1.52,6.26-1.55,9.81L1.26,35.69,1,69.45.31,139Q.16,155.84,0,172.71c-.06,5.93,2.13,11.19,8.5,12.64,3,.69,6.53.36,9.63.37,41,.13,82,.07,123,.06q54.42,0,108.83,0l62.92,0,32.83,0c5.6,0,11.22.09,16.83,0a17.63,17.63,0,0,0,8.16-1.83c6.43-3.39,7.43-9.33,7.33-15.86-.18-11.28-.08-22.58-.11-33.86q-.11-34.86-.22-69.72-.06-16.94-.11-33.86c0-5.31.07-10.63-.05-15.94-.08-3.48-.81-6.77-3.15-9.5C368.7-1.44,358.77.18,351.12.18H283c-3.21,0-3.22,5,0,5h64.19c7.93,0,24.12-3.16,25.27,8.28,1,10.46.11,21.51.15,32q.11,32.37.2,64.74c.07,20.16.81,40.46.28,60.61-.29,11.19-11.51,9.84-19.53,9.85l-32.13,0-59.16,0-104.29,0q-65.29,0-130.58,0l-12.58,0c-1,0-2,0-2.94,0C3.16,180.31,5,172,5.07,165.76L6.24,37.67l.15-15.89c0-4.52-1.08-9.92,2.6-13.26,3.33-3,7.76-3.34,12-3.34H262c3.22,0,3.23-5,0-5Z"/><path class="cls-2" d="M221.05,184.34l4.83,23.82,2.41-3.16H212.43c-3.22,0-3.23,5,0,5,8.11,0,16.41-.51,24.51,0,2.58.16,5.55,0,7,2.7a4.66,4.66,0,0,1-2.44,6.19c-3.11,1.28-8.61.29-11.92.29h-75c-3.89,0-8,.37-11.83,0-2.22-.22-6.27-1.66-5.7-4.74.61-3.27,4.91-3.25,7.31-3.31,16.91-.44,33.89,0,50.81,0,3.22,0,3.22-5,0-5H153.1l2.42,3.17q2.74-12.48,5.51-25c.7-3.13-4.12-4.47-4.82-1.33l-5.52,25a2.53,2.53,0,0,0,2.41,3.16h42.08c3.22,0,3.22-5,0-5H152.34c-4.15,0-9-.77-13.05.41-4.33,1.26-8.17,5.37-7.13,10.14,1.37,6.32,8.17,7.5,13.56,7.5h85.81c6.37,0,13.68,1.24,17-5.62,2.63-5.41-1-11.56-6.48-13.22-4-1.21-9.39-.34-13.61-.34h-16c-3.22,0-3.23,5,0,5h15.86a2.54,2.54,0,0,0,2.41-3.17L225.87,183c-.64-3.15-5.46-1.82-4.82,1.33Z"/><text class="cls-3" transform="translate(16.17 124.85) scale(0.92 1.17)">C<tspan class="cls-4" x="64.5" y="0">O</tspan><tspan class="cls-5" x="129.8" y="0">P</tspan><tspan class="cls-4" x="191.84" y="0">U</tspan><tspan x="257.48" y="0">V</tspan><tspan class="cls-4" x="321.37" y="0">E</tspan></text></g></g></svg>